<?xml version="1.0" encoding="utf-8"?><svg xmlns="http://www.w3.org/2000/svg" xmlns:xlink="http://www.w3.org/1999/xlink" width="1903" height="846" preserveAspectRatio="xMidYMid" viewBox="0 0 1903 846" style="z-index:1;margin-right:-2px;display:block;background-repeat-y:initial;background-repeat-x:initial;animation-play-state:paused" ><g transform="translate(951.5,423) scale(1,1) translate(-951.5,-423)" style="transform:matrix(1, 0, 0, 1, 0, 0);animation-play-state:paused" ><linearGradient id="lg-0.1683418777338399" x1="0" x2="1" y1="0" y2="0" style="animation-play-state:paused" ><stop stop-color="#dd10d6" offset="0" style="animation-play-state:paused" ></stop>

  
<stop stop-color="#ea021c" offset="1" style="animation-play-state:paused" ></stop></linearGradient>
<path d="M 0 0 L 0 443.856 Q 237.875 801.778 475.75 764.998 T 951.5 437.297 T 1427.25 419.188 T 1903 692.891 L 1903 0 Z" fill="url(#lg-0.1683418777338399)" opacity="0.4" style="opacity:0.4;animation-play-state:paused" ></path>
<path d="M 0 0 L 0 553.598 Q 237.875 565.631 475.75 535.298 T 951.5 578.411 T 1427.25 735.747 T 1903 571.252 L 1903 0 Z" fill="url(#lg-0.1683418777338399)" opacity="0.4" style="opacity:0.4;animation-play-state:paused" ></path>
<path d="M 0 0 L 0 658.417 Q 237.875 740.585 475.75 715.735 T 951.5 640.37 T 1427.25 664.965 T 1903 624.374 L 1903 0 Z" fill="url(#lg-0.1683418777338399)" opacity="0.4" style="opacity:0.4;animation-play-state:paused" ></path></g></svg>